<svg xmlns="http://www.w3.org/2000/svg" viewBox="0 0 766.91 769.04"><defs><style>.cls-1,.cls-2,.cls-3,.cls-4,.cls-5{isolation:isolate;}.cls-1,.cls-3,.cls-4,.cls-5{font-size:44.85px;fill:#fff;font-family:Lato-Bold, Lato;font-weight:700;}.cls-3{letter-spacing:-0.03em;}.cls-4{letter-spacing:-0.07em;}.cls-5{letter-spacing:-0.09em;}.cls-6{fill:none;stroke:#fff;stroke-miterlimit:10;}.cls-7{fill:#141414;}.cls-8{fill:#3498db;}.cls-9{fill:#2dbf6d;}.cls-10{fill:#ff7043;}.cls-11{fill:#bb382c;}</style></defs><title>donutChart</title><g id="Layer_1" data-name="Layer 1"><g id="Completed"><text class="cls-1" transform="translate(85.63 57.67)">COMPLETED</text></g><g id="on_track" data-name="on track"><g class="cls-2"><text class="cls-1" transform="translate(129.5 124.94)">ON TR</text><text class="cls-3" transform="translate(263.98 124.94)">A</text><text class="cls-1" transform="translate(294.68 124.94)">CK</text></g></g><g id="at_Risk" data-name="at Risk"><g class="cls-2"><text class="cls-4" transform="translate(193.34 192.22)">A</text><text class="cls-1" transform="translate(221.89 192.22)">T RISK</text></g></g><g id="Delayed"><g class="cls-2"><text class="cls-1" transform="translate(157.35 259.49)">DEL</text><text class="cls-5" transform="translate(239.74 259.49)">A</text><text class="cls-1" transform="translate(267.5 259.49)">YED</text></g></g></g><g id="Layer_2" data-name="Layer 2"><path class="cls-6" d="M403.64,395.33" transform="translate(-21.12 -13.15)"/><path id="complete" class="cls-7" d="M437.59,76C600.43,92.9,727.4,230.56,727.4,397.87c0,178.74-144.89,323.63-323.63,323.63-166.22,0-303.18-125.31-321.54-286.62-1.38-12.14-5.86-37.24-32.27-37s-29.84,25.29-28.63,37.69C40.26,630.09,204.26,782.14,403.77,782.14,616,782.14,788,610.09,788,397.87c0-195.42-150.12-359.28-339.54-384-14.68-1.91-40.61-2.15-44.72,24.51C399.44,66.45,426.48,74.83,437.59,76Z" transform="translate(-21.12 -13.15)"/><path id="complete-color" class="cls-8" d="M437.59,76.33C600.43,93.24,727.4,230.9,727.4,398.22c0,173.48-136.5,315.08-308,323.25-5.19.25-38.08,1.28-38.08,29.77,0,31,32.88,31.14,38.07,30.93,205-8.22,368.6-177,368.6-383.95,0-195.43-150.12-359.29-339.54-384-14.68-1.92-40.61-2.15-44.72,24.5C399.44,66.8,426.48,75.18,437.59,76.33Z" transform="translate(-21.12 -13.15)"/><path id="onTrack" class="cls-7" d="M456.85,95.65c-6.76-1.28-47.14-11.46-52.7,19.24-6.38,35.23,32.72,39.74,39.68,40.92,115.55,19.76,203.5,120.4,203.5,241.58,0,135.36-109.73,245.1-245.09,245.1-130.33,0-213.1-83-244.32-221.36-3.17-14.05-13.77-26.42-34.61-23.2-26,4-26.67,25-26.19,29.94C112.18,583.39,243.25,705,402.72,705c169.57,0,307-137.46,307-307C709.75,246.83,605.73,123.82,456.85,95.65Z" transform="translate(-21.12 -13.15)"/><path id="onTrack-color" class="cls-9" d="M456.85,95.65c-6.76-1.28-47.14-11.46-52.7,19.24-6.38,35.23,32.72,39.74,39.68,40.92,115.55,19.76,203.5,120.4,203.5,241.58,0,135.36-109.73,245.1-245.09,245.1-92.36,0-160.83-41.67-204-115.2-17.75-30.23-36.42-36.77-56.7-26.31-7.43,3.84-23.95,20,.4,59.08,54.2,87,150.73,144.9,260.78,144.9,169.57,0,307-137.46,307-307C709.75,246.83,605.73,123.82,456.85,95.65Z" transform="translate(-21.12 -13.15)"/><path id="atRisk" class="cls-7" d="M445.57,172.39c-5.05-1-34.16-3.86-40.43,18.59-5,17.84-.68,35.26,24.4,39.31,67.73,10.93,138.8,74.18,139.17,173.53.3,81.5-64.2,157.12-165.31,158.14-73.95.75-146.13-49.86-171.06-147.35-2.67-10.42-13-23-35.93-16.41-15.79,4.51-22.64,16.66-19.58,35.67,17,105.49,109.18,193.68,228.3,193.68,126.67,0,225-103.24,225-229.91C630.1,284.77,556.78,193.44,445.57,172.39Z" transform="translate(-21.12 -13.15)"/><path id="atRisk-color" class="cls-10" d="M630.1,397.64c0-112.87-73.32-204.2-184.53-225.25-5.05-1-34.16-3.86-40.43,18.59-5,17.84-.68,35.26,24.4,39.31,67.73,10.93,140.12,74.19,139.17,173.53,1.58,8.84,5.49,28.09,37.58,24.47C632.35,425.35,630.1,397.64,630.1,397.64Z" transform="translate(-21.12 -13.15)"/><path id="delayed-2" data-name="delayed" class="cls-7" d="M455,255.54c-8.81-4.69-37.51-7.81-48.39,11.17-9,15.69.52,35.61,12.8,40.65,30.07,12.33,73,35.81,72.73,93.81-.19,42.59-33.55,82.12-86.4,82.65-38.64.39-63.48-21.21-85.76-61.68-10.73-19.48-20.54-29.28-39-24.29-26.93,7.27-22.2,33.44-20.24,43.31,8.94,44.89,63.64,108,147.36,104.62C474.3,543.13,551.52,490,551.59,399,551.67,305.78,486.24,272.17,455,255.54Z" transform="translate(-21.12 -13.15)"/><path id="delayed-color" class="cls-11" d="M354.79,538.44a150.12,150.12,0,0,0,53.36,7.34C474.3,543.13,551.52,490,551.59,399c.08-93.21-65.35-126.82-96.56-143.45-8.81-4.69-37.51-7.81-48.39,11.17-9,15.69.52,35.61,12.8,40.65,30.07,12.33,73,35.81,72.73,93.81-.19,42.59-39.73,79.1-86.4,82.65-36.69,2.79-48.39-21.75-68.72,5.72C317.73,515.64,341.29,533.23,354.79,538.44Z" transform="translate(-21.12 -13.15)"/></g></svg>